<?xml version="1.0" encoding="UTF-8" standalone="no"?>
<!-- Uploaded to: SVG Repo, www.svgrepo.com, Generator: SVG Repo Mixer Tools -->

<svg
   height="92"
   width="92"
   version="1.1"
   id="_x32_"
   viewBox="0 0 58.88 58.88"
   xml:space="preserve"
   sodipodi:docname="Logo.svg"
   inkscape:export-filename="pizza_propozycja1.png"
   inkscape:export-xdpi="96"
   inkscape:export-ydpi="96"
   inkscape:version="1.2.1 (9c6d41e410, 2022-07-14)"
   xmlns:inkscape="http://www.inkscape.org/namespaces/inkscape"
   xmlns:sodipodi="http://sodipodi.sourceforge.net/DTD/sodipodi-0.dtd"
   xmlns="http://www.w3.org/2000/svg"
   xmlns:svg="http://www.w3.org/2000/svg"><defs
   id="defs31"><rect
     x="1002.4096"
     y="44.337349"
     width="2351.8074"
     height="281.4458"
     id="rect3340" /><rect
     x="994.69879"
     y="142.6506"
     width="682.40967"
     height="267.95181"
     id="rect3328" /></defs><sodipodi:namedview
   id="namedview29"
   pagecolor="#ffffff"
   bordercolor="#000000"
   borderopacity="0.25"
   inkscape:showpageshadow="2"
   inkscape:pageopacity="0.0"
   inkscape:pagecheckerboard="0"
   inkscape:deskcolor="#d1d1d1"
   showgrid="false"
   inkscape:zoom="4.15"
   inkscape:cx="40.481928"
   inkscape:cy="64.216868"
   inkscape:window-width="1920"
   inkscape:window-height="991"
   inkscape:window-x="-9"
   inkscape:window-y="-9"
   inkscape:window-maximized="1"
   inkscape:current-layer="g26"
   showguides="true"><sodipodi:guide
     position="-64.556293,-286.58341"
     orientation="0,-1"
     id="guide17588"
     inkscape:locked="false" /></sodipodi:namedview>
<style
   type="text/css"
   id="style2">
	.st0{fill:#000000;}
</style>
<g
   id="g26">
	
	<path
   class="st0"
   d="M 256,66.838 C 151.53,66.845 66.846,151.523 66.838,256 66.846,360.477 151.53,445.155 256,445.162 360.484,445.155 445.162,360.477 445.162,256 445.162,151.523 360.484,66.845 256,66.838 Z m 118.884,308.04 C 344.425,405.317 302.456,424.109 255.999,424.116 209.543,424.109 167.581,405.317 137.128,374.878 106.684,344.418 87.884,302.457 87.884,256 87.891,209.543 106.683,167.582 137.128,137.122 167.582,106.683 209.544,87.891 256,87.884 c 46.457,0.007 88.426,18.799 118.885,49.238 30.432,30.46 49.231,72.421 49.231,118.878 0,46.457 -18.8,88.418 -49.232,118.878 z"
   id="path6"
   style="display:none;fill:#c83737" />
	
	
	
	
	
	
	
	
	
<g
   id="g376"
   transform="matrix(0.19032754,0,0,0.19032754,-1.9271149,0.22642632)"><ellipse
     style="fill:#ffdd55;fill-opacity:1;stroke-width:1.06212"
     id="path2545"
     cx="-123.90497"
     cy="189.11002"
     rx="138.9845"
     ry="138.07133"
     transform="matrix(-0.97025742,0.24207549,0.24207549,0.97025742,0,0)"
     inkscape:export-filename="Logo.png"
     inkscape:export-xdpi="150"
     inkscape:export-ydpi="150" /><path
     class="st0"
     d="M 272.24053,46.056216 C 243.51462,17.317237 205.36638,1.4894771 164.79383,1.4894771 124.25039,1.4894771 86.098583,17.317237 57.372076,46.056216 28.628931,74.791046 12.80118,112.94285 12.804738,153.49105 c -0.0033,40.5476 15.824193,78.6994 44.567338,107.43067 28.726507,28.74314 66.874144,44.5709 107.434234,44.5709 l 0.0125,-1.24867 0.007,1.24867 c 40.53989,0 78.68812,-15.82776 107.41405,-44.5709 28.74313,-28.73127 44.57505,-66.88247 44.56734,-107.43067 0.007,-40.5482 -15.82421,-78.700004 -44.56734,-107.434834 z M 261.76192,250.44727 C 235.81776,276.38313 201.3799,290.67365 164.80631,290.67781 128.2333,290.67365 93.799009,276.38372 67.850685,250.44727 41.914226,224.5025 27.624301,190.06821 27.620143,153.49105 27.624301,116.91329 41.914226,82.479 67.850685,56.530676 93.802567,30.594815 128.23271,16.308441 164.80631,16.304292 c 36.57359,0.0042 71.00372,14.290523 96.95621,40.226384 25.93645,25.948324 40.23054,60.382614 40.23054,96.960374 -4.8e-4,36.57716 -14.29468,71.01145 -40.23114,96.95622 z"
     id="path4"
     style="fill:#000000;fill-opacity:1;stroke:#000000;stroke-width:0.365564;stroke-dasharray:none;stroke-opacity:1" /><g
     id="g2485"
     transform="matrix(0.5120777,0,0,0.5120777,-223.41523,25.557994)"
     style="fill:#ffe680"><path
       class="st0"
       d="m 758.13012,60.669325 c -104.47,0.007 -189.154,84.685005 -189.162,189.162005 0.008,104.477 84.692,189.155 189.162,189.162 104.484,-0.007 189.162,-84.685 189.162,-189.162 0,-104.477 -84.678,-189.155005 -189.162,-189.162005 z m 118.884,308.040005 c -30.459,30.439 -72.428,49.231 -118.885,49.238 -46.456,-0.007 -88.418,-18.799 -118.871,-49.238 -30.444,-30.46 -49.244,-72.421 -49.244,-118.878 0.007,-46.457 18.799,-88.418 49.244,-118.878 30.454,-30.439 72.416,-49.231005 118.872,-49.238005 46.457,0.007 88.426,18.799005 118.885,49.238005 30.432,30.46 49.231,72.421 49.231,118.878 0,46.457 -18.8,88.418 -49.232,118.878 z"
       id="path2367"
       style="display:inline;fill:#ffe680" /><circle
       style="fill:#ffe680;fill-opacity:1;stroke-width:2.31973"
       id="path2421"
       cx="758.13013"
       cy="249.83133"
       r="169.02168" /></g><polygon
     class="st0"
     points="294.879,132.416 295.907,165.362 318.104,165.053 317.076,132.107 "
     id="polygon8"
     style="fill:#44aa00"
     transform="matrix(0.5120777,0,0,0.5120777,33.714411,22.39915)" /><polygon
     class="st0"
     points="182.969,218.018 139.192,195.657 129.011,215.6 172.788,237.947 "
     id="polygon10"
     style="fill:#44aa00;fill-opacity:1"
     transform="matrix(0.5120777,0,0,0.5120777,33.714411,22.39915)" /><path
     class="st0"
     d="m 110.49944,170.31281 c -5.86636,0 -10.623051,4.75361 -10.623051,10.62253 0,5.86586 4.757201,10.62306 10.623051,10.62306 5.86892,0 10.62612,-4.7572 10.62612,-10.62306 0,-5.86892 -4.75771,-10.62253 -10.62612,-10.62253 z"
     id="path12"
     style="fill:#ff2a2a;stroke-width:0.512078" /><path
     class="st0"
     d="m 163.03452,100.69225 c 0,-8.153301 -6.60991,-14.762689 -14.75552,-14.762689 -8.15637,0 -14.76269,6.609903 -14.76269,14.762689 0,8.14613 6.60632,14.75911 14.76269,14.75911 8.14613,0 14.75552,-6.61298 14.75552,-14.75911 z"
     id="path14"
     style="fill:#ff2a2a;stroke-width:0.512078" /><polygon
     class="st0"
     points="243.367,369.938 211.044,360.737 208.167,381.605 240.496,390.806 "
     id="polygon16"
     style="fill:#44aa00;fill-opacity:1"
     transform="matrix(0.5120777,0,0,0.5120777,33.714411,22.39915)" /><path
     class="st0"
     d="m 153.68858,155.72576 c -7.12146,0 -12.89616,5.77469 -12.89616,12.89258 0,7.12146 5.77419,12.89667 12.89616,12.89667 7.12147,0 12.8931,-5.77521 12.8931,-12.89667 0,-7.11789 -5.77163,-12.89258 -12.8931,-12.89258 z"
     id="path18"
     style="fill:#ff2a2a;stroke-width:0.512078" /><path
     class="st0"
     d="m 198.86766,186.50317 c -7.91774,0 -14.33459,6.41684 -14.33459,14.33151 0,7.91774 6.41634,14.33459 14.33459,14.33459 7.91468,0 14.32794,-6.41633 14.32794,-14.33459 0,-7.91467 -6.41326,-14.33151 -14.32794,-14.33151 z"
     id="path20"
     style="fill:#ff2a2a;stroke-width:0.512078" /><path
     class="st0"
     d="m 209.39905,146.03623 c 7.17063,0 12.98783,-5.81311 12.98783,-12.98425 0,-7.17114 -5.8172,-12.98373 -12.98783,-12.98373 -7.17113,0 -12.98731,5.81311 -12.98731,12.98373 0,7.17063 5.81669,12.98425 12.98731,12.98425 z"
     id="path22"
     style="fill:#ff2a2a;stroke-width:0.512078" /><polygon
     class="st0"
     points="366.266,307.149 394.533,287.959 387.956,271.298 359.703,290.495 "
     id="polygon24"
     style="fill:#44aa00;fill-opacity:1"
     transform="matrix(0.5120777,0,0,0.5120777,33.714411,22.39915)" /><g
     aria-label="PIZZARELLA"
     transform="matrix(0.47324166,0,0,0.49211233,-4.8660443,-31.943137)"
     id="text3338"
     style="font-weight:bold;font-size:76.8px;font-family:'Times New Roman';-inkscape-font-specification:'Times New Roman,  Bold';letter-spacing:19.2px;white-space:pre;stroke:#000000;stroke-width:0"><path
       d="m 129.74919,405.06583 12.04762,32.52811 q 3.81617,10.3035 0.62134,17.76513 -3.15965,7.4486 -10.8609,10.30096 -7.52542,2.78723 -14.74089,-0.49876 -7.21548,-3.286 -9.95061,-10.67076 -2.27928,-6.15396 0.13148,-14.00501 l -22.119115,8.19238 -8.791508,-23.73672 z m -2.81312,28.0348 -11.67495,4.32412 q 0.10941,1.15916 0.44805,2.07346 0.98986,2.67258 3.28995,3.70019 2.3001,1.0276 5.04301,0.0117 2.70774,-1.00289 3.73405,-2.98258 1.06147,-1.99272 0.0977,-4.59497 z"
       style="font-family:'Gill Sans Ultra Bold';-inkscape-font-specification:'Gill Sans Ultra Bold,  Bold';fill:#ff5733"
       id="path320" /><path
       d="m 109.8848,500.78961 47.31461,-32.1874 14.23754,20.92881 -47.31461,32.1874 z"
       style="font-family:'Gill Sans Ultra Bold';-inkscape-font-specification:'Gill Sans Ultra Bold,  Bold';fill:#008080"
       id="path322" /><path
       d="m 194.10425,572.452 -9.61125,10.67264 -44.78053,-40.32707 48.24504,-14.23432 -17.97352,-16.18603 9.61125,-10.67265 44.16748,39.77499 -48.24504,14.23432 z"
       style="fill:#36b55c"
       id="path324" /><path
       d="m 263.61426,609.04728 -6.25239,12.93017 -54.25267,-26.23389 42.35888,-27.12795 -21.77534,-10.52947 6.25238,-12.93016 53.50995,25.87474 -42.35888,27.12795 z"
       style="fill:#00a8e8"
       id="path326" /><path
       d="m 302.70982,633.21103 -25.08093,-3.68371 27.97965,-53.72947 35.72919,5.24766 11.34843,59.50571 -25.04383,-3.67827 -1.85905,-10.05184 -18.40258,-2.70284 z m 11.19617,-21.77921 9.27549,1.36232 -2.57247,-14.7428 z"
       style="font-family:'Gill Sans Ultra Bold';-inkscape-font-specification:'Gill Sans Ultra Bold,  Bold';fill:#ff54a7"
       id="path328" /><path
       d="m 368.48426,582.3746 36.86169,-6.24831 q 9.5759,-1.62318 15.86884,2.2927 6.28667,3.8789 7.51502,11.12553 1.3537,7.98609 -4.31495,13.58722 10.89956,8.8783 15.48818,25.17818 l -25.9178,4.39324 q -2.51367,-10.566 -5.89267,-15.24206 -3.34202,-4.68232 -8.62911,-3.78613 l 3.54092,20.88953 -24.95651,4.2303 z m 26.92438,7.3791 1.84253,10.86995 0.70248,-0.11908 q 6.72902,-1.14061 5.83282,-6.4277 -0.37603,-2.21835 -2.02603,-3.65024 -1.65628,-1.46885 -4.83592,-0.92988 z"
       style="font-family:'Gill Sans Ultra Bold';-inkscape-font-specification:'Gill Sans Ultra Bold,  Bold';fill:#785447"
       id="path330" /><path
       d="m 500.5515,585.74539 6.15828,12.97525 -42.92335,20.37214 -24.53661,-51.69773 42.92334,-20.37214 6.15827,12.97525 -20.05574,9.51879 3.03894,6.40293 13.95771,-6.62457 6.15828,12.97525 -13.95771,6.62457 3.02286,6.36905 z"
       style="font-family:'Gill Sans Ultra Bold';-inkscape-font-specification:'Gill Sans Ultra Bold,  Bold';fill:#a695e7"
       id="path332" /><path
       d="M 529.15244,583.71818 492.452,539.8117 l 19.45005,-16.25786 27.48925,32.8867 17.03318,-14.23766 9.21119,11.01978 z"
       style="font-family:'Gill Sans Ultra Bold';-inkscape-font-specification:'Gill Sans Ultra Bold,  Bold';fill:#80ff80"
       id="path334" /><path
       d="m 582.52639,534.16748 -46.40449,-33.48618 14.83398,-20.55664 34.75776,25.08171 12.9907,-18.00226 11.64674,8.40446 z"
       style="fill:#7a3b3d"
       id="path336" /><path
       d="m 629.59057,454.55122 -8.37487,23.92664 -47.44581,-37.66447 11.93048,-34.08484 60.57801,0.14636 -8.36249,23.89125 -10.22198,-0.0816 -6.14488,17.55564 z m -19.25971,-15.12455 3.09722,-8.84861 -14.9631,-0.27107 z"
       style="fill:#ff54a7"
       id="path338" /></g></g></g>
</svg>
